# xmcd
#
# Track frame offsets:
#	150
#	19530
#	34595
#	47828
#	58373
#	66303
#	85218
#	102018
#	115321
#	129317
#	149115
#	163353
#	177844
#	190674
#	201968
#	213378
#	227047
#	239153
#
# Disc length: 3272 seconds
#
# Revision: 1
# Processed by: cddbd v1.5.2PL0 Copyright (c) Steve Scherf et al.
# Submitted via: EZCDAudioConverter 2.4.0.1
#
DISCID=0f0cc612
DTITLE=אוסף, אמנים שונים 1997 - שירי פלמח
DYEAR=1997
DGENRE=ישראלי
TTITLE0=יפה ירקוני - האמיני יום יבוא
TTITLE1=אסתר עופרים - הוא לא ידע את שמה
TTITLE2=הצ'יזבטרון - ציפ ציפ ציפי
TTITLE3=מיכל טל - הן אפשר
TTITLE4=טובה פורת - רבותי ההסטוריה חוזרת
TTITLE5=שלישיית גשר הירקון - קרב הראל
TTITLE6=אסתר עופרים - הרעות
TTITLE7=הצ'יזבטרון - הפלמחניק מחפש את המחקר
TTITLE8=הצ'יזבטרון - מוטי מוטי מוטי
TTITLE9=טובה פורת - באב אל וואד
TTITLE10=זמרי אפי נצר - בערבות הנגב
TTITLE11=טובה פורת - דודו
TTITLE12=זמרי אפי נצר - הגדודנים
TTITLE13=נחמה הנדל - עוד נשוטה
TTITLE14=זמרי אפי נצר - חושלים פה
TTITLE15=ברכה ציפורה - עלי גבעה
TTITLE16=אסתר עופרים - שירת הנודד
TTITLE17=זמרי אפי מצר - חושו אחים חושו
EXTD=
EXTT0=
EXTT1=
EXTT2=
EXTT3=
EXTT4=
EXTT5=
EXTT6=
EXTT7=
EXTT8=
EXTT9=
EXTT10=
EXTT11=
EXTT12=
EXTT13=
EXTT14=
EXTT15=
EXTT16=
EXTT17=
PLAYORDER=
